<?xml version="1.0" encoding="UTF-8"?><svg width="24" height="24" viewBox="0 0 24 24" fill="none" xmlns="http://www.w3.org/2000/svg"><path d="M12 22C6.477 22 2 17.523 2 12S6.477 2 12 2s10 4.477 10 10-4.477 10-10 10zm-1-7v2h2v-2h-2zm2-1.645A3.502 3.502 0 0014.5 10.5a3.5 3.5 0 00-7 0h2a1.5 1.5 0 113 0c0 .826-.504 1.358-1.365 1.725-.855.366-1.635.876-1.635 2.275h2c0-.66.195-.962.865-1.275C13.19 12.773 14 11.754 14 10.5a3.5 3.5 0 00-3.5-3.5 3.5 3.5 0 00-3.5 3.5h2a1.5 1.5 0 013 0z" fill="#006838"/></svg>
